<mxfile host="Electron" agent="Mozilla/5.0 (Windows NT 10.0; Win64; x64) AppleWebKit/537.36 (KHTML, like Gecko) draw.io/24.7.8 Chrome/128.0.6613.36 Electron/32.0.1 Safari/537.36" version="24.7.8">
  <diagram name="Pagina-1" id="7HRhXJljB1W4Z6pqHdwr">
    <mxGraphModel dx="2589" dy="2049" grid="1" gridSize="10" guides="1" tooltips="1" connect="1" arrows="1" fold="1" page="1" pageScale="1" pageWidth="827" pageHeight="1169" math="0" shadow="0">
      <root>
        <mxCell id="0" />
        <mxCell id="1" parent="0" />
        <mxCell id="VEUeA_GkKHYD7uvM37CW-15" style="edgeStyle=orthogonalEdgeStyle;rounded=0;orthogonalLoop=1;jettySize=auto;html=1;exitX=0.5;exitY=1;exitDx=0;exitDy=0;entryX=0;entryY=0.5;entryDx=0;entryDy=0;" edge="1" parent="1" source="VEUeA_GkKHYD7uvM37CW-1" target="VEUeA_GkKHYD7uvM37CW-13">
          <mxGeometry relative="1" as="geometry">
            <Array as="points">
              <mxPoint x="10" y="270" />
              <mxPoint x="10" y="305" />
            </Array>
          </mxGeometry>
        </mxCell>
        <mxCell id="VEUeA_GkKHYD7uvM37CW-16" style="edgeStyle=orthogonalEdgeStyle;rounded=0;orthogonalLoop=1;jettySize=auto;html=1;exitX=0.5;exitY=1;exitDx=0;exitDy=0;entryX=0;entryY=0.5;entryDx=0;entryDy=0;" edge="1" parent="1" source="VEUeA_GkKHYD7uvM37CW-1" target="VEUeA_GkKHYD7uvM37CW-4">
          <mxGeometry relative="1" as="geometry">
            <Array as="points">
              <mxPoint x="10" y="270" />
              <mxPoint x="10" y="345" />
            </Array>
          </mxGeometry>
        </mxCell>
        <mxCell id="VEUeA_GkKHYD7uvM37CW-17" style="edgeStyle=orthogonalEdgeStyle;rounded=0;orthogonalLoop=1;jettySize=auto;html=1;exitX=0.5;exitY=1;exitDx=0;exitDy=0;entryX=0;entryY=0.5;entryDx=0;entryDy=0;" edge="1" parent="1" source="VEUeA_GkKHYD7uvM37CW-1" target="VEUeA_GkKHYD7uvM37CW-9">
          <mxGeometry relative="1" as="geometry">
            <Array as="points">
              <mxPoint x="10" y="270" />
              <mxPoint x="10" y="385" />
            </Array>
          </mxGeometry>
        </mxCell>
        <mxCell id="VEUeA_GkKHYD7uvM37CW-18" style="edgeStyle=orthogonalEdgeStyle;rounded=0;orthogonalLoop=1;jettySize=auto;html=1;exitX=0.5;exitY=1;exitDx=0;exitDy=0;entryX=0;entryY=0.5;entryDx=0;entryDy=0;" edge="1" parent="1" source="VEUeA_GkKHYD7uvM37CW-1" target="VEUeA_GkKHYD7uvM37CW-11">
          <mxGeometry relative="1" as="geometry">
            <Array as="points">
              <mxPoint x="10" y="270" />
              <mxPoint x="10" y="425" />
            </Array>
          </mxGeometry>
        </mxCell>
        <mxCell id="VEUeA_GkKHYD7uvM37CW-74" style="edgeStyle=orthogonalEdgeStyle;rounded=0;orthogonalLoop=1;jettySize=auto;html=1;exitX=0.5;exitY=0;exitDx=0;exitDy=0;entryX=0.5;entryY=1;entryDx=0;entryDy=0;endArrow=doubleBlock;endFill=1;" edge="1" parent="1" source="VEUeA_GkKHYD7uvM37CW-1" target="VEUeA_GkKHYD7uvM37CW-61">
          <mxGeometry relative="1" as="geometry" />
        </mxCell>
        <mxCell id="VEUeA_GkKHYD7uvM37CW-1" value="Utente" style="rounded=0;whiteSpace=wrap;html=1;" vertex="1" parent="1">
          <mxGeometry x="-100" y="190" width="170" height="80" as="geometry" />
        </mxCell>
        <mxCell id="VEUeA_GkKHYD7uvM37CW-4" value="" style="ellipse;whiteSpace=wrap;html=1;aspect=fixed;" vertex="1" parent="1">
          <mxGeometry x="40" y="330" width="30" height="30" as="geometry" />
        </mxCell>
        <mxCell id="VEUeA_GkKHYD7uvM37CW-41" style="edgeStyle=orthogonalEdgeStyle;rounded=0;orthogonalLoop=1;jettySize=auto;html=1;exitX=0.5;exitY=1;exitDx=0;exitDy=0;entryX=0;entryY=0.5;entryDx=0;entryDy=0;" edge="1" parent="1" source="VEUeA_GkKHYD7uvM37CW-7" target="VEUeA_GkKHYD7uvM37CW-35">
          <mxGeometry relative="1" as="geometry">
            <Array as="points">
              <mxPoint x="658" y="278" />
              <mxPoint x="658" y="313" />
            </Array>
          </mxGeometry>
        </mxCell>
        <mxCell id="VEUeA_GkKHYD7uvM37CW-42" style="edgeStyle=orthogonalEdgeStyle;rounded=0;orthogonalLoop=1;jettySize=auto;html=1;exitX=0.5;exitY=1;exitDx=0;exitDy=0;entryX=0;entryY=0.5;entryDx=0;entryDy=0;" edge="1" parent="1" source="VEUeA_GkKHYD7uvM37CW-7" target="VEUeA_GkKHYD7uvM37CW-33">
          <mxGeometry relative="1" as="geometry">
            <Array as="points">
              <mxPoint x="658" y="278" />
              <mxPoint x="658" y="353" />
            </Array>
          </mxGeometry>
        </mxCell>
        <mxCell id="VEUeA_GkKHYD7uvM37CW-43" style="edgeStyle=orthogonalEdgeStyle;rounded=0;orthogonalLoop=1;jettySize=auto;html=1;exitX=0.5;exitY=1;exitDx=0;exitDy=0;entryX=0;entryY=0.5;entryDx=0;entryDy=0;" edge="1" parent="1" source="VEUeA_GkKHYD7uvM37CW-7" target="VEUeA_GkKHYD7uvM37CW-37">
          <mxGeometry relative="1" as="geometry">
            <Array as="points">
              <mxPoint x="658" y="278" />
              <mxPoint x="658" y="393" />
            </Array>
          </mxGeometry>
        </mxCell>
        <mxCell id="VEUeA_GkKHYD7uvM37CW-44" style="edgeStyle=orthogonalEdgeStyle;rounded=0;orthogonalLoop=1;jettySize=auto;html=1;exitX=0.5;exitY=1;exitDx=0;exitDy=0;entryX=0;entryY=0.5;entryDx=0;entryDy=0;" edge="1" parent="1" source="VEUeA_GkKHYD7uvM37CW-7" target="VEUeA_GkKHYD7uvM37CW-39">
          <mxGeometry relative="1" as="geometry">
            <Array as="points">
              <mxPoint x="658" y="278" />
              <mxPoint x="658" y="433" />
            </Array>
          </mxGeometry>
        </mxCell>
        <mxCell id="VEUeA_GkKHYD7uvM37CW-77" style="edgeStyle=orthogonalEdgeStyle;rounded=0;orthogonalLoop=1;jettySize=auto;html=1;entryX=0.5;entryY=1;entryDx=0;entryDy=0;endArrow=doubleBlock;endFill=1;" edge="1" parent="1" source="VEUeA_GkKHYD7uvM37CW-7" target="VEUeA_GkKHYD7uvM37CW-73">
          <mxGeometry relative="1" as="geometry" />
        </mxCell>
        <mxCell id="VEUeA_GkKHYD7uvM37CW-7" value="Libro" style="rounded=0;whiteSpace=wrap;html=1;" vertex="1" parent="1">
          <mxGeometry x="535" y="198" width="170" height="80" as="geometry" />
        </mxCell>
        <mxCell id="VEUeA_GkKHYD7uvM37CW-8" value="Nome" style="text;html=1;align=center;verticalAlign=middle;resizable=0;points=[];autosize=1;strokeColor=none;fillColor=none;" vertex="1" parent="1">
          <mxGeometry x="60" y="330" width="60" height="30" as="geometry" />
        </mxCell>
        <mxCell id="VEUeA_GkKHYD7uvM37CW-9" value="" style="ellipse;whiteSpace=wrap;html=1;aspect=fixed;" vertex="1" parent="1">
          <mxGeometry x="40" y="370" width="30" height="30" as="geometry" />
        </mxCell>
        <mxCell id="VEUeA_GkKHYD7uvM37CW-10" value="Cognome" style="text;html=1;align=center;verticalAlign=middle;resizable=0;points=[];autosize=1;strokeColor=none;fillColor=none;" vertex="1" parent="1">
          <mxGeometry x="60" y="370" width="80" height="30" as="geometry" />
        </mxCell>
        <mxCell id="VEUeA_GkKHYD7uvM37CW-11" value="" style="ellipse;whiteSpace=wrap;html=1;aspect=fixed;" vertex="1" parent="1">
          <mxGeometry x="40" y="410" width="30" height="30" as="geometry" />
        </mxCell>
        <mxCell id="VEUeA_GkKHYD7uvM37CW-12" value="Email" style="text;html=1;align=center;verticalAlign=middle;resizable=0;points=[];autosize=1;strokeColor=none;fillColor=none;" vertex="1" parent="1">
          <mxGeometry x="65" y="410" width="50" height="30" as="geometry" />
        </mxCell>
        <mxCell id="VEUeA_GkKHYD7uvM37CW-13" value="" style="ellipse;whiteSpace=wrap;html=1;aspect=fixed;fillColor=#f9f7ed;strokeColor=#36393d;" vertex="1" parent="1">
          <mxGeometry x="40" y="290" width="30" height="30" as="geometry" />
        </mxCell>
        <mxCell id="VEUeA_GkKHYD7uvM37CW-14" value="Cod Utente" style="text;html=1;align=center;verticalAlign=middle;resizable=0;points=[];autosize=1;strokeColor=none;fillColor=none;" vertex="1" parent="1">
          <mxGeometry x="60" y="290" width="80" height="30" as="geometry" />
        </mxCell>
        <mxCell id="VEUeA_GkKHYD7uvM37CW-33" value="" style="ellipse;whiteSpace=wrap;html=1;aspect=fixed;" vertex="1" parent="1">
          <mxGeometry x="688" y="338" width="30" height="30" as="geometry" />
        </mxCell>
        <mxCell id="VEUeA_GkKHYD7uvM37CW-34" value="Titolo" style="text;html=1;align=center;verticalAlign=middle;resizable=0;points=[];autosize=1;strokeColor=none;fillColor=none;" vertex="1" parent="1">
          <mxGeometry x="708" y="338" width="50" height="30" as="geometry" />
        </mxCell>
        <mxCell id="VEUeA_GkKHYD7uvM37CW-35" value="" style="ellipse;whiteSpace=wrap;html=1;aspect=fixed;fillColor=#eeeeee;strokeColor=#36393d;" vertex="1" parent="1">
          <mxGeometry x="688" y="298" width="30" height="30" as="geometry" />
        </mxCell>
        <mxCell id="VEUeA_GkKHYD7uvM37CW-36" value="Cod libro" style="text;html=1;align=center;verticalAlign=middle;resizable=0;points=[];autosize=1;strokeColor=none;fillColor=none;" vertex="1" parent="1">
          <mxGeometry x="708" y="298" width="70" height="30" as="geometry" />
        </mxCell>
        <mxCell id="VEUeA_GkKHYD7uvM37CW-37" value="" style="ellipse;whiteSpace=wrap;html=1;aspect=fixed;" vertex="1" parent="1">
          <mxGeometry x="688" y="378" width="30" height="30" as="geometry" />
        </mxCell>
        <mxCell id="VEUeA_GkKHYD7uvM37CW-38" value="Anno pubblicazione" style="text;html=1;align=center;verticalAlign=middle;resizable=0;points=[];autosize=1;strokeColor=none;fillColor=none;" vertex="1" parent="1">
          <mxGeometry x="708" y="378" width="130" height="30" as="geometry" />
        </mxCell>
        <mxCell id="VEUeA_GkKHYD7uvM37CW-39" value="" style="ellipse;whiteSpace=wrap;html=1;aspect=fixed;" vertex="1" parent="1">
          <mxGeometry x="688" y="418" width="30" height="30" as="geometry" />
        </mxCell>
        <mxCell id="VEUeA_GkKHYD7uvM37CW-40" value="isDisponibile" style="text;html=1;align=center;verticalAlign=middle;resizable=0;points=[];autosize=1;strokeColor=none;fillColor=none;" vertex="1" parent="1">
          <mxGeometry x="708" y="418" width="90" height="30" as="geometry" />
        </mxCell>
        <mxCell id="VEUeA_GkKHYD7uvM37CW-61" value="Chiede" style="rhombus;whiteSpace=wrap;html=1;" vertex="1" parent="1">
          <mxGeometry x="-55" y="-40" width="80" height="80" as="geometry" />
        </mxCell>
        <mxCell id="VEUeA_GkKHYD7uvM37CW-70" style="edgeStyle=orthogonalEdgeStyle;rounded=0;orthogonalLoop=1;jettySize=auto;html=1;exitX=0.5;exitY=1;exitDx=0;exitDy=0;entryX=0;entryY=0.5;entryDx=0;entryDy=0;" edge="1" parent="1" source="VEUeA_GkKHYD7uvM37CW-62" target="VEUeA_GkKHYD7uvM37CW-65">
          <mxGeometry relative="1" as="geometry">
            <Array as="points">
              <mxPoint x="355" y="40" />
              <mxPoint x="355" y="65" />
            </Array>
          </mxGeometry>
        </mxCell>
        <mxCell id="VEUeA_GkKHYD7uvM37CW-71" style="edgeStyle=orthogonalEdgeStyle;rounded=0;orthogonalLoop=1;jettySize=auto;html=1;exitX=0.5;exitY=1;exitDx=0;exitDy=0;entryX=0;entryY=0.5;entryDx=0;entryDy=0;" edge="1" parent="1" source="VEUeA_GkKHYD7uvM37CW-62" target="VEUeA_GkKHYD7uvM37CW-63">
          <mxGeometry relative="1" as="geometry">
            <Array as="points">
              <mxPoint x="355" y="40" />
              <mxPoint x="355" y="105" />
            </Array>
          </mxGeometry>
        </mxCell>
        <mxCell id="VEUeA_GkKHYD7uvM37CW-72" style="edgeStyle=orthogonalEdgeStyle;rounded=0;orthogonalLoop=1;jettySize=auto;html=1;exitX=0.5;exitY=1;exitDx=0;exitDy=0;entryX=0;entryY=0.5;entryDx=0;entryDy=0;" edge="1" parent="1" source="VEUeA_GkKHYD7uvM37CW-62" target="VEUeA_GkKHYD7uvM37CW-67">
          <mxGeometry relative="1" as="geometry">
            <Array as="points">
              <mxPoint x="355" y="40" />
              <mxPoint x="355" y="145" />
            </Array>
          </mxGeometry>
        </mxCell>
        <mxCell id="VEUeA_GkKHYD7uvM37CW-75" style="edgeStyle=orthogonalEdgeStyle;rounded=0;orthogonalLoop=1;jettySize=auto;html=1;exitX=0;exitY=0.5;exitDx=0;exitDy=0;entryX=1;entryY=0.5;entryDx=0;entryDy=0;" edge="1" parent="1" source="VEUeA_GkKHYD7uvM37CW-62" target="VEUeA_GkKHYD7uvM37CW-61">
          <mxGeometry relative="1" as="geometry" />
        </mxCell>
        <mxCell id="VEUeA_GkKHYD7uvM37CW-76" style="edgeStyle=orthogonalEdgeStyle;rounded=0;orthogonalLoop=1;jettySize=auto;html=1;entryX=0;entryY=0.5;entryDx=0;entryDy=0;" edge="1" parent="1" source="VEUeA_GkKHYD7uvM37CW-62" target="VEUeA_GkKHYD7uvM37CW-73">
          <mxGeometry relative="1" as="geometry" />
        </mxCell>
        <mxCell id="VEUeA_GkKHYD7uvM37CW-62" value="Prestito" style="rounded=0;whiteSpace=wrap;html=1;" vertex="1" parent="1">
          <mxGeometry x="240" y="-40" width="170" height="80" as="geometry" />
        </mxCell>
        <mxCell id="VEUeA_GkKHYD7uvM37CW-63" value="" style="ellipse;whiteSpace=wrap;html=1;aspect=fixed;" vertex="1" parent="1">
          <mxGeometry x="384" y="90" width="30" height="30" as="geometry" />
        </mxCell>
        <mxCell id="VEUeA_GkKHYD7uvM37CW-64" value="Data in. prestito" style="text;html=1;align=center;verticalAlign=middle;resizable=0;points=[];autosize=1;strokeColor=none;fillColor=none;" vertex="1" parent="1">
          <mxGeometry x="404" y="90" width="110" height="30" as="geometry" />
        </mxCell>
        <mxCell id="VEUeA_GkKHYD7uvM37CW-65" value="" style="ellipse;whiteSpace=wrap;html=1;aspect=fixed;fillColor=#eeeeee;strokeColor=#36393d;" vertex="1" parent="1">
          <mxGeometry x="384" y="50" width="30" height="30" as="geometry" />
        </mxCell>
        <mxCell id="VEUeA_GkKHYD7uvM37CW-66" value="Cod Prestito" style="text;html=1;align=center;verticalAlign=middle;resizable=0;points=[];autosize=1;strokeColor=none;fillColor=none;" vertex="1" parent="1">
          <mxGeometry x="404" y="50" width="90" height="30" as="geometry" />
        </mxCell>
        <mxCell id="VEUeA_GkKHYD7uvM37CW-67" value="" style="ellipse;whiteSpace=wrap;html=1;aspect=fixed;" vertex="1" parent="1">
          <mxGeometry x="384" y="130" width="30" height="30" as="geometry" />
        </mxCell>
        <mxCell id="VEUeA_GkKHYD7uvM37CW-68" value="Data fin. prestito" style="text;html=1;align=center;verticalAlign=middle;resizable=0;points=[];autosize=1;strokeColor=none;fillColor=none;" vertex="1" parent="1">
          <mxGeometry x="404" y="130" width="110" height="30" as="geometry" />
        </mxCell>
        <mxCell id="VEUeA_GkKHYD7uvM37CW-73" value="Ceduto" style="rhombus;whiteSpace=wrap;html=1;" vertex="1" parent="1">
          <mxGeometry x="580" y="-40" width="80" height="80" as="geometry" />
        </mxCell>
        <mxCell id="VEUeA_GkKHYD7uvM37CW-78" value="" style="endArrow=none;html=1;rounded=0;" edge="1" parent="1">
          <mxGeometry width="50" height="50" relative="1" as="geometry">
            <mxPoint x="-50" y="170" as="sourcePoint" />
            <mxPoint x="20" y="170" as="targetPoint" />
          </mxGeometry>
        </mxCell>
        <mxCell id="VEUeA_GkKHYD7uvM37CW-79" value="" style="endArrow=none;html=1;rounded=0;" edge="1" parent="1">
          <mxGeometry width="50" height="50" relative="1" as="geometry">
            <mxPoint x="585" y="180" as="sourcePoint" />
            <mxPoint x="655" y="180" as="targetPoint" />
          </mxGeometry>
        </mxCell>
      </root>
    </mxGraphModel>
  </diagram>
</mxfile>
